<svg width="current" height="current" viewBox="0 0 24 24" fill="currentColor" xmlns="http://www.w3.org/2000/svg">
<path d="M3 10C3 10.5523 3.44772 11 4 11H10C10.5523 11 11 10.5523 11 10V4C11 3.44772 10.5523 3 10 3H4C3.44772 3 3 3.44772 3 4V10ZM5 5H9V9H5V5Z" fill="currentColor"/>
<path d="M14 3C13.4477 3 13 3.44772 13 4V10C13 10.5523 13.4477 11 14 11H20C20.5523 11 21 10.5523 21 10V4C21 3.44772 20.5523 3 20 3H14ZM19 9H15V5H19V9Z" fill="currentColor"/>
<path d="M3 20C3 20.5523 3.44772 21 4 21H10C10.5523 21 11 20.5523 11 20V14C11 13.4477 10.5523 13 10 13H4C3.44772 13 3 13.4477 3 14V20ZM5 15H9V19H5V15Z" fill="currentColor"/>
<path d="M12.9975 19.9991C12.9975 20.5514 13.4452 20.9991 13.9975 20.9991H19.9975C20.5498 20.9991 20.9975 20.5514 20.9975 19.9991V13.9991C20.9975 13.4468 20.5498 12.9991 19.9975 12.9991H13.9975C13.4452 12.9991 12.9975 13.4468 12.9975 13.9991V19.9991ZM14.9975 14.9991H18.9975V18.9991H14.9975V14.9991Z" fill="currentColor"/>
</svg>
