<svg width="current" height="current" viewBox="0 0 24 24" fill="currentColor" xmlns="http://www.w3.org/2000/svg">
<path d="M12 3C16.968 3 21 7.032 21 12C21 16.968 16.968 21 12 21C7.032 21 3 16.968 3 12C3 7.032 7.032 3 12 3ZM16.7681 8.40176C16.417 8.04818 15.8451 8.04682 15.4928 8.39912L10.2 13.691L8.50371 12.0018C8.15286 11.6525 7.58569 11.6528 7.23545 12.0026C6.88469 12.3534 6.88469 12.9228 7.23545 13.2735L9.56367 15.6018C9.91514 15.9532 10.4849 15.9532 10.8363 15.6018L16.7654 9.67266C17.1159 9.32217 17.1171 8.75361 16.7681 8.40176Z" fill="currentColor"/>
</svg>
