<svg width="current" height="current" viewBox="0 0 24 24" fill="currentColor" xmlns="http://www.w3.org/2000/svg">
<path d="M16.0205 18.9922H6.02051C5.47051 18.9922 5.02051 18.5422 5.02051 17.9922V7.99219C5.02051 7.44219 5.47051 6.99219 6.02051 6.99219H11.0205C11.5705 6.99219 12.0205 6.54219 12.0205 5.99219C12.0205 5.44219 11.5705 4.99219 11.0205 4.99219H5.02051C3.91051 4.99219 3.02051 5.89219 3.02051 6.99219V18.9922C3.02051 20.0922 3.92051 20.9922 5.02051 20.9922H17.0205C18.1205 20.9922 19.0205 20.0922 19.0205 18.9922V12.9922C19.0205 12.4422 18.5705 11.9922 18.0205 11.9922C17.4705 11.9922 17.0205 12.4422 17.0205 12.9922V17.9922C17.0205 18.5422 16.5705 18.9922 16.0205 18.9922Z" fill="currentColor"/>
<path d="M17.4792 9.78742C17.8697 9.39689 17.8697 8.76373 17.4792 8.37321L15.6121 6.50617C15.2216 6.11565 14.5885 6.11564 14.1979 6.50617L7.27043 13.4337C7.0829 13.6212 6.97754 13.8756 6.97754 14.1408V16.0078C6.97754 16.5601 7.42525 17.0078 7.97754 17.0078H9.84458C10.1098 17.0078 10.3641 16.9025 10.5517 16.7149L17.4792 9.78742ZM9.29676 15.2578C8.98239 15.2578 8.72754 15.003 8.72754 14.6886C8.72754 14.5376 8.78751 14.3928 8.89426 14.2861L14.5025 8.67781C14.7248 8.45552 15.0852 8.45552 15.3075 8.67781C15.5298 8.90011 15.5298 9.26052 15.3075 9.48281L9.69926 15.0911C9.59251 15.1978 9.44773 15.2578 9.29676 15.2578Z" fill="currentColor"/>
<path d="M20.7238 6.54281C21.065 6.20156 21.065 5.65031 20.7238 5.30906L18.6763 3.26156C18.5013 3.08656 18.2825 3.00781 18.055 3.00781C17.8363 3.00781 17.6088 3.09531 17.4425 3.26156L16.5484 4.15571C16.1579 4.54623 16.1579 5.17939 16.5484 5.56992L18.4154 7.43695C18.806 7.82748 19.4391 7.82748 19.8296 7.43696L20.7238 6.54281Z" fill="currentColor"/>
</svg>
