<svg width="current" height="current" viewBox="0 0 24 24" fill="currentColor" xmlns="http://www.w3.org/2000/svg">
<path d="M15 9C15.5523 9 16 9.44772 16 10V18C16 18.5523 15.5523 19 15 19H9C8.44772 19 8 18.5523 8 18V10C8 9.44772 8.44772 9 9 9H15ZM14.7929 3.29289C14.6054 3.10536 14.351 3 14.0858 3H9.91421C9.649 3 9.39464 3.10536 9.20711 3.29289L8.79289 3.70711C8.60536 3.89464 8.351 4 8.08579 4H6C5.44772 4 5 4.44772 5 5C5 5.55228 5.44772 6 6 6H18C18.5523 6 19 5.55228 19 5C19 4.44772 18.5523 4 18 4H15.9142C15.649 4 15.3946 3.89464 15.2071 3.70711L14.7929 3.29289ZM18 8C18 7.44771 17.5523 7 17 7H7C6.44772 7 6 7.44772 6 8V19C6 20.1 6.9 21 8 21H16C17.1 21 18 20.1 18 19V8Z" fill="currentColor"/>
</svg>
