<svg width="current" height="current" viewBox="0 0 24 24" fill="currentColor" xmlns="http://www.w3.org/2000/svg">
<path d="M12 3C16.977 3 21 7.023 21 12C21 16.977 16.977 21 12 21C7.023 21 3 16.977 3 12C3 7.023 7.023 3 12 3ZM10.106 8.69268C9.71512 8.30213 9.0834 8.30195 8.69268 8.69268C8.30195 9.0834 8.30213 9.71512 8.69268 10.106L10.5867 12L8.69268 13.894C8.30213 14.2849 8.30195 14.9166 8.69268 15.3073C9.0834 15.698 9.71512 15.6979 10.106 15.3073L12 13.4133L13.894 15.3073C14.2849 15.6979 14.9166 15.698 15.3073 15.3073C15.698 14.9166 15.6979 14.2849 15.3073 13.894L13.4133 12L15.3073 10.106C15.6979 9.71512 15.698 9.0834 15.3073 8.69268C14.9166 8.31197 14.2749 8.31215 13.894 8.69268L12 10.5867L10.106 8.69268Z" fill="currentColor"/>
</svg>
