<svg width="current" height="current" viewBox="0 0 18 18" fill="currentColor" xmlns="http://www.w3.org/2000/svg">
<path d="M0.4453 5.56367C0.167102 5.75124 0 6.06702 0 6.40516V16.9887C0 17.5472 0.447715 18 1 18H6.71428C7.26657 18 7.71429 17.5472 7.71429 16.9887V11.932H10.2857V16.9887C10.2857 17.5472 10.7334 18 11.2857 18H17C17.5523 18 18 17.5472 18 16.9887V6.40516C18 6.06702 17.8329 5.75124 17.5547 5.56367L9.5547 0.169855C9.2188 -0.056618 8.7812 -0.0566183 8.4453 0.169854L0.4453 5.56367ZM15.9455 16H12.5V10.5161C12.5 9.95753 12.0523 9.50473 11.5 9.50473H6.5C5.94772 9.50473 5.5 9.95753 5.5 10.5161V16H2V7.5C2 7.16179 2.16717 6.84596 2.44545 6.65841L8.5 2.5C8.83583 2.27367 9.27326 2.27367 9.60909 2.5L15.5 6.95221C15.7783 7.13976 15.9455 7.45559 15.9455 7.7938V16Z" fill="currentColor"/>
</svg>
