<svg width="current" height="current" viewBox="0 0 24 24" fill="currentColor" xmlns="http://www.w3.org/2000/svg">
<path d="M12 6.6C12.255 6.6 12.4688 6.68625 12.6413 6.85875C12.8138 7.03125 12.9 7.245 12.9 7.5C12.9 7.755 12.8138 7.96875 12.6413 8.14125C12.4688 8.31375 12.255 8.4 12 8.4C11.745 8.4 11.5312 8.31375 11.3588 8.14125C11.1862 7.96875 11.1 7.755 11.1 7.5C11.1 7.245 11.1862 7.03125 11.3588 6.85875C11.5312 6.68625 11.745 6.6 12 6.6ZM11.1 11.0712C11.1 10.5742 11.5029 10.1712 12 10.1712C12.4971 10.1712 12.9 10.5742 12.9 11.0712V16.4688C12.9 16.9659 12.4971 17.3688 12 17.3688C11.5029 17.3688 11.1 16.9659 11.1 16.4688V11.0712ZM12 3C10.755 3 9.585 3.23625 8.49 3.70875C7.395 4.18125 6.4425 4.8225 5.6325 5.6325C4.8225 6.4425 4.18125 7.395 3.70875 8.49C3.23625 9.585 3 10.755 3 12C3 13.245 3.23625 14.415 3.70875 15.51C4.18125 16.605 4.8225 17.5575 5.6325 18.3675C6.4425 19.1775 7.395 19.8188 8.49 20.2912C9.585 20.7638 10.755 21 12 21C13.245 21 14.415 20.7638 15.51 20.2912C16.605 19.8188 17.5575 19.1775 18.3675 18.3675C19.1775 17.5575 19.8187 16.605 20.2912 15.51C20.7638 14.415 21 13.245 21 12C21 10.755 20.7638 9.585 20.2912 8.49C19.8187 7.395 19.1775 6.4425 18.3675 5.6325C17.5575 4.8225 16.605 4.18125 15.51 3.70875C14.415 3.23625 13.245 3 12 3Z" fill="currentColor"/>
</svg>
