<svg width="current" height="current" viewBox="0 0 24 24" fill="currentColor" xmlns="http://www.w3.org/2000/svg">
<path d="M12 6.54545V8.14245C12 8.57652 12.5152 8.80441 12.8363 8.51242L15.593 6.00633C15.8113 5.80795 15.8113 5.46477 15.593 5.26639L12.8363 2.76031C12.5152 2.46832 12 2.6962 12 3.13028V4.72727C7.58 4.72727 4 7.98182 4 12C4 13.0297 4.23941 14.0073 4.66567 14.8919C4.92753 15.4354 5.64317 15.5062 6.08954 15.1004C6.44152 14.7804 6.5141 14.255 6.34074 13.8121C6.11906 13.2456 6 12.6336 6 12C6 8.99091 8.69 6.54545 12 6.54545ZM19.3343 9.10807C19.0725 8.56462 18.3645 8.48684 17.9181 8.89263L17.8957 8.91296C17.5479 9.22915 17.4776 9.74156 17.6497 10.1789C17.8743 10.7494 18 11.3615 18 12C18 15.0091 15.31 17.4545 12 17.4545V15.8575C12 15.4235 11.4849 15.1956 11.1637 15.4876L8.40697 17.9937C8.18875 18.192 8.18875 18.5352 8.40697 18.7336L11.1637 21.2397C11.4848 21.5317 12 21.3038 12 20.8697V19.2727C16.42 19.2727 20 16.0182 20 12C20 10.9703 19.7606 9.9927 19.3343 9.10807Z" fill="currentColor"/>
</svg>
