<svg width="current" height="current" viewBox="0 0 24 24" fill="currentColor" xmlns="http://www.w3.org/2000/svg">
<path d="M11.5234 4.40275C13.2511 2.25248 15.8842 4.21997 14.8809 6.78947L14.0049 9.03556H19.0898C20.421 9.03576 21.4999 10.1156 21.5 11.4467V12.559C21.5 12.8854 21.4333 13.2092 21.3047 13.5092L18.9277 19.0561L18.8516 19.2182C18.4393 20.0117 17.6159 20.517 16.7119 20.517H9.8877C8.55663 20.5168 7.47768 19.4379 7.47754 18.1069V10.2875C7.47754 9.73845 7.6649 9.20483 8.00879 8.77678L11.5234 4.40275Z" fill="currentColor"/>
<path d="M5.35645 8.94572C5.90873 8.94572 6.35645 9.39344 6.35645 9.94572V19.516C6.35645 20.0683 5.90873 20.516 5.35645 20.516H3.5C2.94772 20.516 2.5 20.0683 2.5 19.516V9.94572C2.5 9.39344 2.94772 8.94572 3.5 8.94572H5.35645Z" fill="currentColor"/>
</svg>
