<svg width="current" height="current" viewBox="0 0 24 24" fill="currentColor" xmlns="http://www.w3.org/2000/svg">
<path d="M17.6431 4.48437C17.6431 3.93209 18.0908 3.48438 18.6431 3.48438H20.5C21.0523 3.48438 21.5 3.93209 21.5 4.48438V14.0551C21.5 14.6074 21.0523 15.0551 20.5 15.0551H18.6431C18.0908 15.0551 17.6431 14.6074 17.6431 14.0551V4.48437Z" fill="currentColor"/>
<path d="M4.43788 12.6521C4.47638 12.8405 4.6252 12.9883 4.81359 13.0269L4.91057 13.0372H11.3466C11.686 13.0372 11.9192 13.3783 11.7958 13.6945L10.1489 17.9139C9.9607 18.3958 10.5463 18.7716 10.905 18.462L10.9737 18.3913L14.4879 14.0165C14.5394 13.9524 14.573 13.8764 14.5868 13.7962L14.5943 13.7143V5.89495C14.5943 5.66195 14.4289 5.46719 14.2092 5.42225L14.1122 5.41283V3.48438C15.4434 3.48448 16.5228 4.56369 16.5228 5.89495V13.7143C16.5228 14.2633 16.3356 14.7966 15.9917 15.2246L12.4766 19.5985C10.7489 21.749 7.34888 19.782 8.35223 17.2124L9.22889 14.9657H4.91057C3.5793 14.9657 2.50008 13.8864 2.5 12.5551V11.4421C2.5 11.1156 2.56632 10.7921 2.69492 10.492L5.07253 4.94579L5.14881 4.78288C5.56107 3.9894 6.38414 3.48438 7.28819 3.48438V5.41283C7.09543 5.41283 6.92071 5.52762 6.84468 5.70474L4.46707 11.2519C4.4414 11.3118 4.42846 11.3769 4.42846 11.4421V12.5551L4.43788 12.6521ZM14.1122 3.48438V5.41283H7.28819V3.48438H14.1122Z" fill="currentColor"/>
</svg>
