<svg width="current" height="current" viewBox="0 0 24 24" fill="currentColor" xmlns="http://www.w3.org/2000/svg">
<path d="M10.7857 13.2143H4.5C3.94771 13.2143 3.5 12.7666 3.5 12.2143V11.7857C3.5 11.2334 3.94772 10.7857 4.5 10.7857H10.7857V4.5C10.7857 3.94771 11.2334 3.5 11.7857 3.5H12.2143C12.7666 3.5 13.2143 3.94772 13.2143 4.5V10.7857H19.5C20.0523 10.7857 20.5 11.2334 20.5 11.7857V12.2143C20.5 12.7666 20.0523 13.2143 19.5 13.2143H13.2143V19.5C13.2143 20.0523 12.7666 20.5 12.2143 20.5H11.7857C11.2334 20.5 10.7857 20.0523 10.7857 19.5V13.2143Z" fill="currentColor"/>
</svg>
