<svg width="current" height="current" viewBox="0 0 24 24" fill="currentColor" xmlns="http://www.w3.org/2000/svg">
<path d="M16 19H6C5.45 19 5 18.55 5 18V8C5 7.45 5.45 7 6 7H11C11.55 7 12 6.55 12 6C12 5.45 11.55 5 11 5H5C3.89 5 3 5.9 3 7V19C3 20.1 3.9 21 5 21H17C18.1 21 19 20.1 19 19V13C19 12.45 18.55 12 18 12C17.45 12 17 12.45 17 13V18C17 18.55 16.55 19 16 19ZM14 4C14 4.55 14.45 5 15 5H17.59L8.46 14.13C8.07 14.52 8.07 15.15 8.46 15.54C8.85 15.93 9.48 15.93 9.87 15.54L19 6.41V9C19 9.55 19.45 10 20 10C20.55 10 21 9.55 21 9V4C21 3.45 20.55 3 20 3H15C14.45 3 14 3.45 14 4Z" fill="currentColor"/>
</svg>
